<svg xmlns="http://www.w3.org/2000/svg" width="48" height="48" viewBox="0 0 48 48">
  <defs><clipPath id="ball"><circle cx="24" cy="24" r="22"/></clipPath></defs>
  <circle cx="24" cy="24" r="22" fill="#ffffff"/>
  <g clip-path="url(#ball)">
    <g fill="#0a1f14">
      <polygon points="24.00,16.50 31.13,21.68 28.41,30.07 19.59,30.07 16.87,21.68"/>
      <polygon points="32.99,11.62 31.10,5.81 36.05,2.22 41.00,5.81 39.11,11.62"/>
      <polygon points="38.55,28.73 43.50,25.13 48.44,28.73 46.55,34.54 40.44,34.54"/>
      <polygon points="24.00,39.30 28.95,42.89 27.06,48.71 20.94,48.71 19.05,42.89"/>
      <polygon points="9.45,28.73 7.56,34.54 1.45,34.54 -0.44,28.73 4.50,25.13"/>
      <polygon points="15.01,11.62 8.89,11.62 7.00,5.81 11.95,2.22 16.90,5.81"/>
    </g>
    <g stroke="#0a1f14" stroke-width="1.7" stroke-linecap="round">
      <line x1="24.00" y1="16.50" x2="24.00" y2="2.00"/>
      <line x1="31.13" y1="21.68" x2="44.92" y2="17.20"/>
      <line x1="28.41" y1="30.07" x2="36.93" y2="41.80"/>
      <line x1="19.59" y1="30.07" x2="11.07" y2="41.80"/>
      <line x1="16.87" y1="21.68" x2="3.08" y2="17.20"/>
    </g>
  </g>
  <circle cx="24" cy="24" r="22" fill="none" stroke="#0a1f14" stroke-width="2"/>
</svg>
